<svg width="1856" height="358" viewBox="0 0 1856 358" fill="none" xmlns="http://www.w3.org/2000/svg">
<path d="M59.0781 272.469H99.4375V312.828H18.4375V53.6562H99.4375V93.875H59.0781V272.469ZM1837.56 312.828H1756.7V272.469H1796.92V93.875H1756.7V53.6562H1837.56V312.828Z" fill="white"/>
<path d="M256.234 163.344L228.109 191.609C226.703 187.672 224.781 184.156 222.344 181.062C219.906 177.875 217.141 175.203 214.047 173.047C211.047 170.891 207.766 169.25 204.203 168.125C200.641 167 196.984 166.438 193.234 166.438C187.984 166.438 183.016 167.516 178.328 169.672C173.734 171.828 169.703 174.875 166.234 178.812C162.859 182.656 160.188 187.25 158.219 192.594C156.25 197.938 155.266 203.844 155.266 210.312C155.266 215.562 156.25 220.484 158.219 225.078C160.188 229.672 162.859 233.703 166.234 237.172C169.703 240.641 173.734 243.359 178.328 245.328C183.016 247.297 187.984 248.281 193.234 248.281C196.984 248.281 200.594 247.766 204.062 246.734C207.531 245.703 210.766 244.25 213.766 242.375C216.859 240.406 219.578 238.062 221.922 235.344C224.359 232.531 226.328 229.438 227.828 226.062L255.953 254.328C252.391 259.391 248.266 263.938 243.578 267.969C238.984 272 233.969 275.422 228.531 278.234C223.188 281.047 217.516 283.156 211.516 284.562C205.609 286.062 199.516 286.812 193.234 286.812C182.641 286.812 172.656 284.844 163.281 280.906C154 276.875 145.844 271.391 138.812 264.453C131.875 257.516 126.391 249.406 122.359 240.125C118.328 230.844 116.312 220.906 116.312 210.312C116.312 198.781 118.328 188 122.359 177.969C126.391 167.938 131.875 159.219 138.812 151.812C145.844 144.312 154 138.406 163.281 134.094C172.656 129.781 182.641 127.625 193.234 127.625C199.516 127.625 205.656 128.422 211.656 130.016C217.75 131.609 223.516 133.953 228.953 137.047C234.484 140.047 239.547 143.75 244.141 148.156C248.828 152.562 252.859 157.625 256.234 163.344ZM418.375 207.359C418.375 218.609 416.359 229.109 412.328 238.859C408.297 248.516 402.812 256.906 395.875 264.031C388.938 271.062 380.781 276.641 371.406 280.766C362.125 284.797 352.141 286.812 341.453 286.812C330.859 286.812 320.875 284.797 311.5 280.766C302.219 276.641 294.062 271.062 287.031 264.031C280.094 256.906 274.609 248.516 270.578 238.859C266.547 229.109 264.531 218.609 264.531 207.359C264.531 195.922 266.547 185.328 270.578 175.578C274.609 165.828 280.094 157.438 287.031 150.406C294.062 143.281 302.219 137.703 311.5 133.672C320.875 129.641 330.859 127.625 341.453 127.625C352.141 127.625 362.125 129.547 371.406 133.391C380.781 137.141 388.938 142.531 395.875 149.562C402.812 156.5 408.297 164.891 412.328 174.734C416.359 184.484 418.375 195.359 418.375 207.359ZM379.703 207.359C379.703 201.172 378.672 195.594 376.609 190.625C374.641 185.562 371.922 181.25 368.453 177.688C364.984 174.031 360.906 171.266 356.219 169.391C351.625 167.422 346.703 166.438 341.453 166.438C336.203 166.438 331.234 167.422 326.547 169.391C321.953 171.266 317.922 174.031 314.453 177.688C311.078 181.25 308.406 185.562 306.438 190.625C304.469 195.594 303.484 201.172 303.484 207.359C303.484 213.172 304.469 218.562 306.438 223.531C308.406 228.5 311.078 232.812 314.453 236.469C317.922 240.125 321.953 243.031 326.547 245.188C331.234 247.25 336.203 248.281 341.453 248.281C346.703 248.281 351.625 247.297 356.219 245.328C360.906 243.359 364.984 240.594 368.453 237.031C371.922 233.469 374.641 229.156 376.609 224.094C378.672 219.031 379.703 213.453 379.703 207.359ZM550.281 266.422C547.188 269.234 543.859 271.906 540.297 274.438C536.828 276.875 533.172 279.031 529.328 280.906C525.484 282.688 521.5 284.094 517.375 285.125C513.344 286.25 509.219 286.812 505 286.812C495.719 286.812 487 285.172 478.844 281.891C470.688 278.609 463.516 273.969 457.328 267.969C451.234 261.875 446.406 254.516 442.844 245.891C439.375 237.172 437.641 227.422 437.641 216.641V133.391H475.891V216.641C475.891 221.703 476.641 226.25 478.141 230.281C479.734 234.219 481.844 237.547 484.469 240.266C487.094 242.984 490.141 245.047 493.609 246.453C497.172 247.859 500.969 248.562 505 248.562C508.938 248.562 512.641 247.672 516.109 245.891C519.672 244.016 522.766 241.578 525.391 238.578C528.016 235.578 530.078 232.203 531.578 228.453C533.078 224.609 533.828 220.672 533.828 216.641V133.391H572.219V284H562.938L550.281 266.422ZM640 284H601.609V133.391H610.891L623.547 148.016C629.734 142.391 636.719 138.078 644.5 135.078C652.375 131.984 660.578 130.438 669.109 130.438C678.297 130.438 686.969 132.219 695.125 135.781C703.281 139.25 710.406 144.078 716.5 150.266C722.594 156.359 727.375 163.531 730.844 171.781C734.406 179.938 736.188 188.656 736.188 197.938V284H697.797V197.938C697.797 194 697.047 190.297 695.547 186.828C694.047 183.266 691.984 180.172 689.359 177.547C686.734 174.922 683.688 172.859 680.219 171.359C676.75 169.859 673.047 169.109 669.109 169.109C665.078 169.109 661.281 169.859 657.719 171.359C654.156 172.859 651.062 174.922 648.438 177.547C645.812 180.172 643.75 183.266 642.25 186.828C640.75 190.297 640 194 640 197.938V284ZM837.156 284C827.875 284 819.156 282.266 811 278.797C802.844 275.234 795.672 270.406 789.484 264.312C783.391 258.125 778.562 250.953 775 242.797C771.531 234.641 769.797 225.922 769.797 216.641V171.922H751.094V133.672H769.797V73.4844H808.047V133.672H866.266V171.922H808.047V216.641C808.047 220.672 808.797 224.469 810.297 228.031C811.797 231.5 813.859 234.547 816.484 237.172C819.109 239.797 822.203 241.906 825.766 243.5C829.328 245 833.125 245.75 837.156 245.75H866.266V284H837.156ZM1033.47 284H1024.19L1009.28 263.328C1005.62 266.609 1001.73 269.703 997.609 272.609C993.578 275.422 989.312 277.906 984.812 280.062C980.312 282.125 975.672 283.766 970.891 284.984C966.203 286.203 961.422 286.812 956.547 286.812C945.953 286.812 935.969 284.844 926.594 280.906C917.312 276.875 909.156 271.344 902.125 264.312C895.188 257.188 889.703 248.797 885.672 239.141C881.641 229.391 879.625 218.797 879.625 207.359C879.625 196.016 881.641 185.469 885.672 175.719C889.703 165.969 895.188 157.531 902.125 150.406C909.156 143.281 917.312 137.703 926.594 133.672C935.969 129.641 945.953 127.625 956.547 127.625C959.922 127.625 963.391 127.906 966.953 128.469C970.609 129.031 974.125 129.969 977.5 131.281C980.969 132.5 984.203 134.141 987.203 136.203C990.203 138.266 992.734 140.797 994.797 143.797V73.4844H1033.47V284ZM994.797 207.359C994.797 202.109 993.766 197.047 991.703 192.172C989.734 187.203 987.016 182.844 983.547 179.094C980.078 175.25 976 172.203 971.312 169.953C966.719 167.609 961.797 166.438 956.547 166.438C951.297 166.438 946.328 167.375 941.641 169.25C937.047 171.125 933.016 173.844 929.547 177.406C926.172 180.875 923.5 185.141 921.531 190.203C919.562 195.266 918.578 200.984 918.578 207.359C918.578 212.891 919.562 218.141 921.531 223.109C923.5 228.078 926.172 232.438 929.547 236.188C933.016 239.938 937.047 242.891 941.641 245.047C946.328 247.203 951.297 248.281 956.547 248.281C961.797 248.281 966.719 247.156 971.312 244.906C976 242.562 980.078 239.516 983.547 235.766C987.016 231.922 989.734 227.562 991.703 222.688C993.766 217.719 994.797 212.609 994.797 207.359ZM1208.41 207.359C1208.41 218.609 1206.39 229.109 1202.36 238.859C1198.33 248.516 1192.84 256.906 1185.91 264.031C1178.97 271.062 1170.81 276.641 1161.44 280.766C1152.16 284.797 1142.17 286.812 1131.48 286.812C1120.89 286.812 1110.91 284.797 1101.53 280.766C1092.25 276.641 1084.09 271.062 1077.06 264.031C1070.12 256.906 1064.64 248.516 1060.61 238.859C1056.58 229.109 1054.56 218.609 1054.56 207.359C1054.56 195.922 1056.58 185.328 1060.61 175.578C1064.64 165.828 1070.12 157.438 1077.06 150.406C1084.09 143.281 1092.25 137.703 1101.53 133.672C1110.91 129.641 1120.89 127.625 1131.48 127.625C1142.17 127.625 1152.16 129.547 1161.44 133.391C1170.81 137.141 1178.97 142.531 1185.91 149.562C1192.84 156.5 1198.33 164.891 1202.36 174.734C1206.39 184.484 1208.41 195.359 1208.41 207.359ZM1169.73 207.359C1169.73 201.172 1168.7 195.594 1166.64 190.625C1164.67 185.562 1161.95 181.25 1158.48 177.688C1155.02 174.031 1150.94 171.266 1146.25 169.391C1141.66 167.422 1136.73 166.438 1131.48 166.438C1126.23 166.438 1121.27 167.422 1116.58 169.391C1111.98 171.266 1107.95 174.031 1104.48 177.688C1101.11 181.25 1098.44 185.562 1096.47 190.625C1094.5 195.594 1093.52 201.172 1093.52 207.359C1093.52 213.172 1094.5 218.562 1096.47 223.531C1098.44 228.5 1101.11 232.812 1104.48 236.469C1107.95 240.125 1111.98 243.031 1116.58 245.188C1121.27 247.25 1126.23 248.281 1131.48 248.281C1136.73 248.281 1141.66 247.297 1146.25 245.328C1150.94 243.359 1155.02 240.594 1158.48 237.031C1161.95 233.469 1164.67 229.156 1166.64 224.094C1168.7 219.031 1169.73 213.453 1169.73 207.359ZM1419.77 229.578C1419.77 237.453 1418.27 244.906 1415.27 251.938C1412.27 258.875 1408.14 264.922 1402.89 270.078C1397.73 275.234 1391.64 279.312 1384.61 282.312C1377.67 285.312 1370.22 286.812 1362.25 286.812C1355.12 286.812 1348.28 285.594 1341.72 283.156C1335.16 280.625 1329.2 276.969 1323.86 272.188C1318.61 276.969 1312.7 280.625 1306.14 283.156C1299.67 285.594 1292.83 286.812 1285.61 286.812C1277.64 286.812 1270.19 285.312 1263.25 282.312C1256.31 279.312 1250.22 275.234 1244.97 270.078C1239.81 264.922 1235.73 258.875 1232.73 251.938C1229.73 244.906 1228.23 237.453 1228.23 229.578V133.672H1266.62V229.578C1266.62 232.203 1267.09 234.688 1268.03 237.031C1269.06 239.281 1270.42 241.297 1272.11 243.078C1273.89 244.766 1275.91 246.125 1278.16 247.156C1280.5 248.094 1282.98 248.562 1285.61 248.562C1288.23 248.562 1290.72 248.094 1293.06 247.156C1295.41 246.125 1297.47 244.766 1299.25 243.078C1301.03 241.297 1302.39 239.281 1303.33 237.031C1304.36 234.688 1304.88 232.203 1304.88 229.578V133.672H1343.12V229.578C1343.12 232.203 1343.64 234.688 1344.67 237.031C1345.7 239.281 1347.06 241.297 1348.75 243.078C1350.53 244.766 1352.55 246.125 1354.8 247.156C1357.14 248.094 1359.62 248.562 1362.25 248.562C1364.88 248.562 1367.36 248.094 1369.7 247.156C1372.05 246.125 1374.06 244.766 1375.75 243.078C1377.53 241.297 1378.94 239.281 1379.97 237.031C1381 234.688 1381.52 232.203 1381.52 229.578V133.672H1419.77V229.578ZM1486 284H1447.61V133.391H1456.89L1469.55 148.016C1475.73 142.391 1482.72 138.078 1490.5 135.078C1498.38 131.984 1506.58 130.438 1515.11 130.438C1524.3 130.438 1532.97 132.219 1541.12 135.781C1549.28 139.25 1556.41 144.078 1562.5 150.266C1568.59 156.359 1573.38 163.531 1576.84 171.781C1580.41 179.938 1582.19 188.656 1582.19 197.938V284H1543.8V197.938C1543.8 194 1543.05 190.297 1541.55 186.828C1540.05 183.266 1537.98 180.172 1535.36 177.547C1532.73 174.922 1529.69 172.859 1526.22 171.359C1522.75 169.859 1519.05 169.109 1515.11 169.109C1511.08 169.109 1507.28 169.859 1503.72 171.359C1500.16 172.859 1497.06 174.922 1494.44 177.547C1491.81 180.172 1489.75 183.266 1488.25 186.828C1486.75 190.297 1486 194 1486 197.938V284ZM1692.3 284H1604.55V245.75H1692.3C1694.92 245.75 1697.17 244.812 1699.05 242.938C1700.92 241.062 1701.86 238.812 1701.86 236.188C1701.86 233.469 1700.92 231.688 1699.05 230.844C1697.17 230 1694.92 229.578 1692.3 229.578H1652.36C1645.7 229.578 1639.47 228.312 1633.66 225.781C1627.84 223.25 1622.78 219.828 1618.47 215.516C1614.16 211.109 1610.73 206 1608.2 200.188C1605.77 194.375 1604.55 188.141 1604.55 181.484C1604.55 174.828 1605.77 168.594 1608.2 162.781C1610.73 156.969 1614.16 151.906 1618.47 147.594C1622.78 143.281 1627.84 139.906 1633.66 137.469C1639.47 134.938 1645.7 133.672 1652.36 133.672H1730.12V171.922H1652.36C1649.73 171.922 1647.48 172.859 1645.61 174.734C1643.73 176.609 1642.8 178.859 1642.8 181.484C1642.8 184.203 1643.73 186.547 1645.61 188.516C1647.48 190.391 1649.73 191.328 1652.36 191.328H1692.3C1698.86 191.328 1705.05 192.453 1710.86 194.703C1716.67 196.859 1721.73 199.906 1726.05 203.844C1730.36 207.781 1733.78 212.516 1736.31 218.047C1738.84 223.578 1740.11 229.625 1740.11 236.188C1740.11 242.844 1738.84 249.078 1736.31 254.891C1733.78 260.609 1730.36 265.672 1726.05 270.078C1721.73 274.391 1716.67 277.812 1710.86 280.344C1705.05 282.781 1698.86 284 1692.3 284Z" fill="#F24646"/>
</svg>
