<svg width="180" height="37" viewBox="0 0 180 37" fill="none" xmlns="http://www.w3.org/2000/svg">
<path d="M5.71289 27.5586H10.7578V32.6035H0.632812V0.207031H10.7578V5.23438H5.71289V27.5586ZM119.795 27.207C119.795 27.6289 119.719 28.0273 119.566 28.4023C119.414 28.7656 119.203 29.082 118.934 29.3516C118.664 29.6211 118.348 29.832 117.984 29.9844C117.621 30.1484 117.229 30.2305 116.807 30.2305C116.396 30.2305 116.004 30.1484 115.629 29.9844C115.266 29.832 114.943 29.6211 114.662 29.3516C114.393 29.082 114.176 28.7656 114.012 28.4023C113.859 28.0273 113.783 27.6289 113.783 27.207C113.783 26.7969 113.859 26.4102 114.012 26.0469C114.176 25.6836 114.393 25.3672 114.662 25.0977C114.943 24.8281 115.266 24.6172 115.629 24.4648C116.004 24.3008 116.396 24.2188 116.807 24.2188C117.229 24.2188 117.621 24.3008 117.984 24.4648C118.348 24.6172 118.664 24.8281 118.934 25.0977C119.203 25.3672 119.414 25.6836 119.566 26.0469C119.719 26.4102 119.795 26.7969 119.795 27.207ZM179.367 32.6035H169.26V27.5586H174.287V5.23438H169.26V0.207031H179.367V32.6035Z" fill="white"/>
<path d="M28.5996 29H12.9023L20.8301 14.9902H12.9023V10.209H28.5996L20.6719 24.2188H28.5996V29ZM36.0703 29H31.2715V10.1738H32.4316L34.0137 12.002C34.7871 11.2988 35.6602 10.7598 36.6328 10.3848C37.6172 9.99805 38.6426 9.80469 39.709 9.80469C40.8574 9.80469 41.9414 10.0273 42.9609 10.4727C43.9805 10.9062 44.8711 11.5098 45.6328 12.2832C46.3945 13.0449 46.9922 13.9414 47.4258 14.9727C47.8711 15.9922 48.0938 17.082 48.0938 18.2422V29H43.2949V18.2422C43.2949 17.75 43.2012 17.2871 43.0137 16.8535C42.8262 16.4082 42.5684 16.0215 42.2402 15.6934C41.9121 15.3652 41.5312 15.1074 41.0977 14.9199C40.6641 14.7324 40.2012 14.6387 39.709 14.6387C39.2051 14.6387 38.7305 14.7324 38.2852 14.9199C37.8398 15.1074 37.4531 15.3652 37.125 15.6934C36.7969 16.0215 36.5391 16.4082 36.3516 16.8535C36.1641 17.2871 36.0703 17.75 36.0703 18.2422V29ZM59.0098 24.3945C59.1973 24.4531 59.3848 24.4941 59.5723 24.5176C59.7598 24.5293 59.9473 24.5352 60.1348 24.5352C60.6035 24.5352 61.0547 24.4707 61.4883 24.3418C61.9219 24.2129 62.3262 24.0312 62.7012 23.7969C63.0879 23.5508 63.4277 23.2578 63.7207 22.918C64.0254 22.5664 64.2715 22.1797 64.459 21.7578L67.9746 25.291C67.5293 25.9238 67.0137 26.4922 66.4277 26.9961C65.8535 27.5 65.2266 27.9277 64.5469 28.2793C63.8789 28.6309 63.1699 28.8945 62.4199 29.0703C61.6816 29.2578 60.9199 29.3516 60.1348 29.3516C58.8105 29.3516 57.5625 29.1055 56.3906 28.6133C55.2305 28.1211 54.2109 27.4355 53.332 26.5566C52.4648 25.6777 51.7793 24.6348 51.2754 23.4277C50.7715 22.209 50.5195 20.873 50.5195 19.4199C50.5195 17.9316 50.7715 16.5723 51.2754 15.3418C51.7793 14.1113 52.4648 13.0625 53.332 12.1953C54.2109 11.3281 55.2305 10.6543 56.3906 10.1738C57.5625 9.69336 58.8105 9.45312 60.1348 9.45312C60.9199 9.45312 61.6875 9.54688 62.4375 9.73438C63.1875 9.92188 63.8965 10.1914 64.5645 10.543C65.2441 10.8945 65.877 11.3281 66.4629 11.8438C67.0488 12.3477 67.5645 12.916 68.0098 13.5488L59.0098 24.3945ZM61.4707 14.498C61.248 14.416 61.0254 14.3633 60.8027 14.3398C60.5918 14.3164 60.3691 14.3047 60.1348 14.3047C59.4785 14.3047 58.8574 14.4277 58.2715 14.6738C57.6973 14.9082 57.1934 15.248 56.7598 15.6934C56.3379 16.1387 56.0039 16.6777 55.7578 17.3105C55.5117 17.9316 55.3887 18.6348 55.3887 19.4199C55.3887 19.5957 55.3945 19.7949 55.4062 20.0176C55.4297 20.2402 55.459 20.4688 55.4941 20.7031C55.541 20.9258 55.5938 21.1426 55.6523 21.3535C55.7109 21.5645 55.7871 21.752 55.8809 21.916L61.4707 14.498ZM75.2695 36.1719H70.4355V10.1738H71.5957L73.5117 12.4414C73.9453 12.0312 74.4199 11.6445 74.9355 11.2812C75.4512 10.918 75.9844 10.6074 76.5352 10.3496C77.0977 10.0801 77.6777 9.86914 78.2754 9.7168C78.873 9.56445 79.4766 9.48828 80.0859 9.48828C81.4102 9.48828 82.6523 9.72852 83.8125 10.209C84.9844 10.6777 86.0039 11.3457 86.8711 12.2129C87.75 13.0801 88.4414 14.1289 88.9453 15.3594C89.4492 16.5781 89.7012 17.9316 89.7012 19.4199C89.7012 20.9668 89.4492 22.3613 88.9453 23.6035C88.4414 24.834 87.75 25.8828 86.8711 26.75C86.0039 27.6055 84.9844 28.2617 83.8125 28.7188C82.6523 29.1758 81.4102 29.4043 80.0859 29.4043C79.6641 29.4043 79.2422 29.3574 78.8203 29.2637C78.4102 29.1699 78 29.0469 77.5898 28.8945C77.1914 28.7305 76.793 28.5488 76.3945 28.3496C76.0078 28.1504 75.6328 27.9453 75.2695 27.7344V36.1719ZM84.8848 19.4199C84.8848 18.623 84.7559 17.9082 84.498 17.2754C84.252 16.6426 83.9121 16.1094 83.4785 15.6758C83.0449 15.2305 82.5352 14.8906 81.9492 14.6562C81.3633 14.4219 80.7422 14.3047 80.0859 14.3047C79.4297 14.3047 78.8086 14.4219 78.2227 14.6562C77.6484 14.8906 77.1445 15.2305 76.7109 15.6758C76.2773 16.1094 75.9316 16.6426 75.6738 17.2754C75.4277 17.9082 75.3047 18.623 75.3047 19.4199C75.3047 20.1816 75.4277 20.8789 75.6738 21.5117C75.9316 22.1445 76.2773 22.6836 76.7109 23.1289C77.1445 23.5742 77.6484 23.9199 78.2227 24.166C78.8086 24.4121 79.4297 24.5352 80.0859 24.5352C80.7422 24.5352 81.3633 24.4121 81.9492 24.166C82.5352 23.9199 83.0449 23.5742 83.4785 23.1289C83.9121 22.6836 84.252 22.1445 84.498 21.5117C84.7559 20.8789 84.8848 20.1816 84.8848 19.4199ZM111.217 19.4199C111.217 20.8965 110.965 22.2441 110.461 23.4629C109.957 24.6816 109.271 25.7305 108.404 26.6094C107.537 27.4766 106.518 28.1504 105.346 28.6309C104.186 29.1113 102.938 29.3516 101.602 29.3516C100.277 29.3516 99.0293 29.1055 97.8574 28.6133C96.6973 28.1211 95.6777 27.4355 94.7988 26.5566C93.9316 25.6777 93.2461 24.6348 92.7422 23.4277C92.2383 22.209 91.9863 20.873 91.9863 19.4199V2.68555H96.8027V11.4746C97.0605 11.1465 97.3711 10.8535 97.7344 10.5957C98.1094 10.3379 98.5078 10.127 98.9297 9.96289C99.3633 9.79883 99.8086 9.67578 100.266 9.59375C100.723 9.5 101.168 9.45312 101.602 9.45312C102.938 9.45312 104.186 9.70508 105.346 10.209C106.518 10.7012 107.537 11.3926 108.404 12.2832C109.271 13.1738 109.957 14.2285 110.461 15.4473C110.965 16.6543 111.217 17.9785 111.217 19.4199ZM106.383 19.4199C106.383 18.6934 106.254 18.0195 105.996 17.3984C105.75 16.7656 105.41 16.2207 104.977 15.7637C104.543 15.3066 104.033 14.9492 103.447 14.6914C102.873 14.4336 102.258 14.3047 101.602 14.3047C100.945 14.3047 100.324 14.4512 99.7383 14.7441C99.1641 15.0254 98.6602 15.4062 98.2266 15.8867C97.793 16.3555 97.4531 16.9004 97.207 17.5215C96.9609 18.1309 96.8379 18.7637 96.8379 19.4199C96.8379 20.1465 96.9609 20.8203 97.207 21.4414C97.4531 22.0625 97.793 22.6016 98.2266 23.0586C98.6602 23.5156 99.1641 23.8789 99.7383 24.1484C100.324 24.4062 100.945 24.5352 101.602 24.5352C102.258 24.5352 102.873 24.4062 103.447 24.1484C104.033 23.8789 104.543 23.5156 104.977 23.0586C105.41 22.6016 105.75 22.0625 105.996 21.4414C106.254 20.8203 106.383 20.1465 106.383 19.4199Z" fill="#1BE253"/>
<path d="M147.322 29H142.541V17.0469C142.541 16.7188 142.477 16.4082 142.348 16.1152C142.23 15.8223 142.061 15.5645 141.838 15.3418C141.615 15.1191 141.357 14.9492 141.064 14.832C140.771 14.7031 140.461 14.6387 140.133 14.6387C139.805 14.6387 139.494 14.7031 139.201 14.832C138.92 14.9492 138.668 15.1191 138.445 15.3418C138.234 15.5645 138.064 15.8223 137.936 16.1152C137.818 16.4082 137.76 16.7188 137.76 17.0469V29H132.961V17.0469C132.961 16.7188 132.896 16.4082 132.768 16.1152C132.65 15.8223 132.48 15.5645 132.258 15.3418C132.035 15.1191 131.777 14.9492 131.484 14.832C131.191 14.7031 130.881 14.6387 130.553 14.6387C130.225 14.6387 129.914 14.7031 129.621 14.832C129.34 14.9492 129.088 15.1191 128.865 15.3418C128.654 15.5645 128.484 15.8223 128.355 16.1152C128.238 16.4082 128.18 16.7188 128.18 17.0469V29H123.381V10.1738H124.541L125.842 11.6152C126.51 11.0527 127.242 10.6191 128.039 10.3145C128.848 9.99805 129.686 9.83984 130.553 9.83984C131.432 9.83984 132.287 10.0039 133.119 10.332C133.963 10.6602 134.701 11.2285 135.334 12.0371C135.627 11.6387 135.961 11.2988 136.336 11.0176C136.711 10.7363 137.104 10.5078 137.514 10.332C137.936 10.1562 138.369 10.0332 138.814 9.96289C139.26 9.88086 139.699 9.83984 140.133 9.83984C141.129 9.83984 142.061 10.0273 142.928 10.4023C143.807 10.7773 144.568 11.293 145.213 11.9492C145.869 12.5938 146.385 13.3555 146.76 14.2344C147.135 15.1133 147.322 16.0508 147.322 17.0469V29ZM158.326 24.3945C158.514 24.4531 158.701 24.4941 158.889 24.5176C159.076 24.5293 159.264 24.5352 159.451 24.5352C159.92 24.5352 160.371 24.4707 160.805 24.3418C161.238 24.2129 161.643 24.0312 162.018 23.7969C162.404 23.5508 162.744 23.2578 163.037 22.918C163.342 22.5664 163.588 22.1797 163.775 21.7578L167.291 25.291C166.846 25.9238 166.33 26.4922 165.744 26.9961C165.17 27.5 164.543 27.9277 163.863 28.2793C163.195 28.6309 162.486 28.8945 161.736 29.0703C160.998 29.2578 160.236 29.3516 159.451 29.3516C158.127 29.3516 156.879 29.1055 155.707 28.6133C154.547 28.1211 153.527 27.4355 152.648 26.5566C151.781 25.6777 151.096 24.6348 150.592 23.4277C150.088 22.209 149.836 20.873 149.836 19.4199C149.836 17.9316 150.088 16.5723 150.592 15.3418C151.096 14.1113 151.781 13.0625 152.648 12.1953C153.527 11.3281 154.547 10.6543 155.707 10.1738C156.879 9.69336 158.127 9.45312 159.451 9.45312C160.236 9.45312 161.004 9.54688 161.754 9.73438C162.504 9.92188 163.213 10.1914 163.881 10.543C164.561 10.8945 165.193 11.3281 165.779 11.8438C166.365 12.3477 166.881 12.916 167.326 13.5488L158.326 24.3945ZM160.787 14.498C160.564 14.416 160.342 14.3633 160.119 14.3398C159.908 14.3164 159.686 14.3047 159.451 14.3047C158.795 14.3047 158.174 14.4277 157.588 14.6738C157.014 14.9082 156.51 15.248 156.076 15.6934C155.654 16.1387 155.32 16.6777 155.074 17.3105C154.828 17.9316 154.705 18.6348 154.705 19.4199C154.705 19.5957 154.711 19.7949 154.723 20.0176C154.746 20.2402 154.775 20.4688 154.811 20.7031C154.857 20.9258 154.91 21.1426 154.969 21.3535C155.027 21.5645 155.104 21.752 155.197 21.916L160.787 14.498Z" fill="#16D34B"/>
</svg>
