<svg width="1024" height="1024" viewBox="0 0 1024 1024" fill="none" xmlns="http://www.w3.org/2000/svg">
<g clip-path="url(#clip0_1115:2)">
<path d="M168.172 605.469H208.531V645.828H127.531V386.656H208.531V426.875H168.172V605.469ZM896.469 645.828H815.609V605.469H855.828V426.875H815.609V386.656H896.469V645.828Z" fill="black"/>
<path d="M351.266 617H225.688L289.109 504.922H225.688V466.672H351.266L287.844 578.75H351.266V617ZM419.891 602.656C419.891 606.031 419.281 609.219 418.062 612.219C416.844 615.125 415.156 617.656 413 619.812C410.844 621.969 408.312 623.656 405.406 624.875C402.5 626.188 399.359 626.844 395.984 626.844C392.703 626.844 389.562 626.188 386.562 624.875C383.656 623.656 381.078 621.969 378.828 619.812C376.672 617.656 374.938 615.125 373.625 612.219C372.406 609.219 371.797 606.031 371.797 602.656C371.797 599.375 372.406 596.281 373.625 593.375C374.938 590.469 376.672 587.938 378.828 585.781C381.078 583.625 383.656 581.938 386.562 580.719C389.562 579.406 392.703 578.75 395.984 578.75C399.359 578.75 402.5 579.406 405.406 580.719C408.312 581.938 410.844 583.625 413 585.781C415.156 587.938 416.844 590.469 418.062 593.375C419.281 596.281 419.891 599.375 419.891 602.656ZM640.109 617H601.859V521.375C601.859 518.75 601.344 516.266 600.312 513.922C599.375 511.578 598.016 509.516 596.234 507.734C594.453 505.953 592.391 504.594 590.047 503.656C587.703 502.625 585.219 502.109 582.594 502.109C579.969 502.109 577.484 502.625 575.141 503.656C572.891 504.594 570.875 505.953 569.094 507.734C567.406 509.516 566.047 511.578 565.016 513.922C564.078 516.266 563.609 518.75 563.609 521.375V617H525.219V521.375C525.219 518.75 524.703 516.266 523.672 513.922C522.734 511.578 521.375 509.516 519.594 507.734C517.812 505.953 515.75 504.594 513.406 503.656C511.062 502.625 508.578 502.109 505.953 502.109C503.328 502.109 500.844 502.625 498.5 503.656C496.25 504.594 494.234 505.953 492.453 507.734C490.766 509.516 489.406 511.578 488.375 513.922C487.438 516.266 486.969 518.75 486.969 521.375V617H448.578V466.391H457.859L468.266 477.922C473.609 473.422 479.469 469.953 485.844 467.516C492.312 464.984 499.016 463.719 505.953 463.719C512.984 463.719 519.828 465.031 526.484 467.656C533.234 470.281 539.141 474.828 544.203 481.297C546.547 478.109 549.219 475.391 552.219 473.141C555.219 470.891 558.359 469.062 561.641 467.656C565.016 466.25 568.484 465.266 572.047 464.703C575.609 464.047 579.125 463.719 582.594 463.719C590.562 463.719 598.016 465.219 604.953 468.219C611.984 471.219 618.078 475.344 623.234 480.594C628.484 485.75 632.609 491.844 635.609 498.875C638.609 505.906 640.109 513.406 640.109 521.375V617ZM728.141 580.156C729.641 580.625 731.141 580.953 732.641 581.141C734.141 581.234 735.641 581.281 737.141 581.281C740.891 581.281 744.5 580.766 747.969 579.734C751.438 578.703 754.672 577.25 757.672 575.375C760.766 573.406 763.484 571.062 765.828 568.344C768.266 565.531 770.234 562.438 771.734 559.062L799.859 587.328C796.297 592.391 792.172 596.938 787.484 600.969C782.891 605 777.875 608.422 772.438 611.234C767.094 614.047 761.422 616.156 755.422 617.562C749.516 619.062 743.422 619.812 737.141 619.812C726.547 619.812 716.562 617.844 707.188 613.906C697.906 609.969 689.75 604.484 682.719 597.453C675.781 590.422 670.297 582.078 666.266 572.422C662.234 562.672 660.219 551.984 660.219 540.359C660.219 528.453 662.234 517.578 666.266 507.734C670.297 497.891 675.781 489.5 682.719 482.562C689.75 475.625 697.906 470.234 707.188 466.391C716.562 462.547 726.547 460.625 737.141 460.625C743.422 460.625 749.562 461.375 755.562 462.875C761.562 464.375 767.234 466.531 772.578 469.344C778.016 472.156 783.078 475.625 787.766 479.75C792.453 483.781 796.578 488.328 800.141 493.391L728.141 580.156ZM747.828 500.984C746.047 500.328 744.266 499.906 742.484 499.719C740.797 499.531 739.016 499.438 737.141 499.438C731.891 499.438 726.922 500.422 722.234 502.391C717.641 504.266 713.609 506.984 710.141 510.547C706.766 514.109 704.094 518.422 702.125 523.484C700.156 528.453 699.172 534.078 699.172 540.359C699.172 541.766 699.219 543.359 699.312 545.141C699.5 546.922 699.734 548.75 700.016 550.625C700.391 552.406 700.812 554.141 701.281 555.828C701.75 557.516 702.359 559.016 703.109 560.328L747.828 500.984Z" fill="#1BE253"/>
</g>
<defs>
<clipPath id="clip0_1115:2">
<rect width="1024" height="1024" fill="white"/>
</clipPath>
</defs>
</svg>
